<svg width="24" height="24" viewBox="0 0 24 24" fill="none" xmlns="http://www.w3.org/2000/svg">
<path d="M11.9992 2.31953C15.1539 2.31953 15.5242 2.33359 16.7711 2.38984C17.9242 2.44141 18.5477 2.63359 18.9648 2.79766C19.518 3.01328 19.9117 3.26641 20.3242 3.67891C20.7367 4.09141 20.9945 4.48516 21.2055 5.03828C21.3648 5.45547 21.5617 6.07891 21.6133 7.23203C21.6695 8.47891 21.6836 8.84922 21.6836 12.0039C21.6836 15.1586 21.6695 15.5289 21.6133 16.7758C21.5617 17.9289 21.3695 18.5523 21.2055 18.9695C20.9898 19.5227 20.7367 19.9164 20.3242 20.3289C19.9117 20.7414 19.518 20.9992 18.9648 21.2102C18.5477 21.3695 17.9242 21.5664 16.7711 21.618C15.5242 21.6742 15.1539 21.6883 11.9992 21.6883C8.84453 21.6883 8.47422 21.6742 7.22734 21.618C6.07422 21.5664 5.45078 21.3742 5.03359 21.2102C4.48047 20.9945 4.08672 20.7414 3.67422 20.3289C3.26172 19.9164 3.00391 19.5227 2.79297 18.9695C2.63359 18.5523 2.43672 17.9289 2.38516 16.7758C2.32891 15.5289 2.31484 15.1586 2.31484 12.0039C2.31484 8.84922 2.32891 8.47891 2.38516 7.23203C2.43672 6.07891 2.62891 5.45547 2.79297 5.03828C3.00859 4.48516 3.26172 4.09141 3.67422 3.67891C4.08672 3.26641 4.48047 3.00859 5.03359 2.79766C5.45078 2.63828 6.07422 2.44141 7.22734 2.38984C8.47422 2.32891 8.84453 2.31953 11.9992 2.31953ZM11.9992 0.191406C8.79297 0.191406 8.38984 0.205469 7.12891 0.261719C5.87266 0.317969 5.01484 0.519531 4.26484 0.810156C3.48672 1.11016 2.83047 1.51797 2.17422 2.17422C1.51797 2.83047 1.11484 3.49141 0.810156 4.26484C0.519531 5.01484 0.317969 5.87266 0.261719 7.13359C0.205469 8.38984 0.191406 8.79297 0.191406 11.9992C0.191406 15.2055 0.205469 15.6086 0.261719 16.8695C0.317969 18.1258 0.519531 18.9836 0.810156 19.7383C1.11016 20.5164 1.51797 21.1727 2.17422 21.8289C2.83047 22.4852 3.49141 22.8883 4.26484 23.193C5.01484 23.4836 5.87266 23.6852 7.13359 23.7414C8.39453 23.7977 8.79297 23.8117 12.0039 23.8117C15.2148 23.8117 15.6133 23.7977 16.8742 23.7414C18.1305 23.6852 18.9883 23.4836 19.743 23.193C20.5211 22.893 21.1773 22.4852 21.8336 21.8289C22.4898 21.1727 22.893 20.5117 23.1977 19.7383C23.4883 18.9883 23.6898 18.1305 23.7461 16.8695C23.8023 15.6086 23.8164 15.2102 23.8164 11.9992C23.8164 8.78828 23.8023 8.38984 23.7461 7.12891C23.6898 5.87266 23.4883 5.01484 23.1977 4.26016C22.8977 3.48203 22.4898 2.82578 21.8336 2.16953C21.1773 1.51328 20.5164 1.11016 19.743 0.805469C18.993 0.514844 18.1352 0.313281 16.8742 0.257031C15.6086 0.205469 15.2055 0.191406 11.9992 0.191406Z" fill="white"/>
<path d="M11.9985 5.93433C8.65161 5.93433 5.93286 8.64839 5.93286 12C5.93286 15.3515 8.65161 18.0656 11.9985 18.0656C15.3454 18.0656 18.0641 15.3468 18.0641 12C18.0641 8.65308 15.3454 5.93433 11.9985 5.93433ZM11.9985 15.9375C9.82349 15.9375 8.06099 14.175 8.06099 12C8.06099 9.82495 9.82349 8.06245 11.9985 8.06245C14.1735 8.06245 15.936 9.82495 15.936 12C15.936 14.175 14.1735 15.9375 11.9985 15.9375Z" fill="white"/>
<path d="M18.3062 7.1125C19.0881 7.1125 19.7219 6.4787 19.7219 5.69688C19.7219 4.91505 19.0881 4.28125 18.3062 4.28125C17.5244 4.28125 16.8906 4.91505 16.8906 5.69688C16.8906 6.4787 17.5244 7.1125 18.3062 7.1125Z" fill="white"/>
</svg>
