<svg width="24" height="24" viewBox="0 0 24 24" fill="none" xmlns="http://www.w3.org/2000/svg">
<g clip-path="url(#clip0_48_761)">
<path d="M24 4.82695C22.4903 4.89653 22.5233 4.89085 22.3526 4.90513L23.2467 2.35173C23.2467 2.35173 20.4558 3.3784 19.7483 3.56206C17.8901 1.89195 15.1282 1.81816 13.1536 3.03178C11.5366 4.02586 10.6686 5.73295 10.9581 7.72825C7.8111 7.29155 5.15955 5.79979 3.0661 3.28502L2.40399 2.48979L1.90924 3.39836C1.28394 4.54643 1.07629 5.85911 1.3244 7.09453C1.42621 7.60136 1.59924 8.08476 1.83893 8.5374L1.27094 8.3173L1.20355 9.26634C1.13525 10.2304 1.45624 11.3558 2.06232 12.2764C2.23297 12.5357 2.4527 12.8204 2.7312 13.1013L2.43768 13.0563L2.79584 14.1437C3.2666 15.5725 4.24438 16.6779 5.51331 17.2924C4.24603 17.8302 3.22229 18.1733 1.53955 18.7268L0 19.233L1.422 20.0104C1.96417 20.3069 3.88 21.2969 5.77295 21.5939C9.98071 22.2538 14.7182 21.7164 17.9075 18.844C20.5939 16.4247 21.4753 12.9832 21.2922 9.40184C21.2646 8.85966 21.4131 8.34221 21.7104 7.94505C22.3061 7.14982 23.9963 4.83226 24 4.82695ZM20.586 7.10277C20.0922 7.76213 19.8448 8.60423 19.8891 9.47362C20.0739 13.0861 19.0909 15.8876 16.9675 17.8C14.4869 20.034 10.4859 20.9109 5.99066 20.2058C5.17657 20.0782 4.33521 19.7923 3.63885 19.5069C5.04968 19.0215 6.13916 18.5888 7.89862 17.756L10.3548 16.5935L7.64301 16.4199C6.34406 16.3368 5.26245 15.7073 4.5976 14.6852C4.95062 14.6647 5.29102 14.6075 5.62994 14.513L8.21631 13.7927L5.60834 13.154C4.34106 12.8437 3.61871 12.0854 3.23584 11.5039C2.98444 11.1217 2.82019 10.7303 2.72168 10.3694C2.98315 10.4395 3.28802 10.4895 3.77966 10.5382L6.19354 10.777L4.28101 9.28502C2.90295 8.21019 2.35071 6.59538 2.75555 5.04301C7.05634 9.50383 12.106 9.16856 12.6143 9.28648C12.5024 8.19975 12.4995 8.19719 12.4702 8.09373C11.8193 5.79265 13.2458 4.62425 13.8893 4.22874C15.2333 3.40275 17.3666 3.27824 18.8443 4.63908C19.1635 4.93278 19.595 5.04832 19.999 4.94798C20.3615 4.85789 20.6591 4.76249 20.9504 4.65867L20.3439 6.39049L21.1181 6.39103C20.972 6.58696 20.7968 6.82152 20.586 7.10277Z" fill="white"/>
</g>
<defs>
<clipPath id="clip0_48_761">
<rect width="24" height="24" fill="white"/>
</clipPath>
</defs>
</svg>
